<svg xmlns="http://www.w3.org/2000/svg" viewBox="0 0 40 40">
  <g transform="translate(-0.75 -0.75)">
    <path d="M.75,101.8c.4-.467.775-.971,1.22-1.4a34.71,34.71,0,0,1,9.936-6.788,21.27,21.27,0,0,1,9.488-2.029,22.622,22.622,0,0,1,8.945,2.37,35.413,35.413,0,0,1,9.636,6.887,10.839,10.839,0,0,1,.775.957v.625c-.359.421-.684.876-1.081,1.257a33.648,33.648,0,0,1-11.957,7.674,19.817,19.817,0,0,1-7.878,1.269,22.749,22.749,0,0,1-8.318-2.195A35.107,35.107,0,0,1,1.173,103.02a4.574,4.574,0,0,1-.423-.592Zm28.2.3a8.2,8.2,0,1,0-8.18,8.217A8.215,8.215,0,0,0,28.953,102.1Zm.517,5.992a33.9,33.9,0,0,0,8.456-5.978,33.692,33.692,0,0,0-8.463-5.978A10.75,10.75,0,0,1,29.47,108.094Zm-17.454-.009a10.8,10.8,0,0,1-.109-11.844,32.536,32.536,0,0,0-8.332,5.876A33.921,33.921,0,0,0,12.016,108.084Z" transform="translate(0 -81.366)" />
    <path d="M6.922.75a.99.99,0,0,0,.119.084,1.186,1.186,0,0,1,.714,1.327,1.184,1.184,0,0,1-1.226.931c-1.026,0-2.052,0-3.078,0H3.094V4.347q0,1.032,0,2.065a1.218,1.218,0,0,1-.932,1.343A1.191,1.191,0,0,1,.807,6.968C.8,6.948.769,6.937.75,6.922V1.609A1.788,1.788,0,0,1,1.609.75Z" />
    <path d="M324.234,6.922a.951.951,0,0,0-.084.118,1.172,1.172,0,0,1-2.259-.511c0-1.026,0-2.052,0-3.078V3.094h-3.319a1.219,1.219,0,0,1-1.343-.932,1.19,1.19,0,0,1,.788-1.354c.02-.01.031-.038.046-.057h5.313a1.793,1.793,0,0,1,.859.859Z" transform="translate(-283.484)" />
    <path d="M.75,318.078a1.015,1.015,0,0,0,.083-.12,1.187,1.187,0,0,1,1.328-.714,1.186,1.186,0,0,1,.931,1.226c.005,1.026,0,2.052,0,3.078v.358h.747c.883,0,1.766,0,2.649,0A1.173,1.173,0,0,1,7,324.178a.418.418,0,0,0-.081.073H1.609a1.8,1.8,0,0,1-.859-.859Z" transform="translate(0 -283.5)" />
    <path d="M318.086,324.234c-.074-.046-.146-.095-.223-.137a1.165,1.165,0,0,1,.537-2.2c1.013-.01,2.026,0,3.039,0h.475v-1.254q0-1.032,0-2.065a1.217,1.217,0,0,1,.932-1.343,1.192,1.192,0,0,1,1.354.789c.01.02.038.031.057.046v5.313a1.8,1.8,0,0,1-.859.859Z" transform="translate(-283.508 -283.484)" />
    <path d="M144,149.074a5.078,5.078,0,1,1,5.052,5.084A5.09,5.09,0,0,1,144,149.074Zm5.07,2.74a2.733,2.733,0,1,0-2.725-2.742A2.74,2.74,0,0,0,149.073,151.814Z" transform="translate(-128.331 -128.331)" />
  </g>
</svg>
