<?xml version="1.0" encoding="utf-8"?>
<!-- Generator: Adobe Illustrator 26.5.0, SVG Export Plug-In . SVG Version: 6.00 Build 0)  -->
<svg version="1.1" xmlns="http://www.w3.org/2000/svg" xmlns:xlink="http://www.w3.org/1999/xlink" x="0px" y="0px" viewBox="0 0 60 60">
<path d="M41.23,33.17c-1.01-0.29-2.06,0.28-2.35,1.29c-0.03,0.11-0.05,0.22-0.07,0.33
	c-0.14,1.48-0.51,2.93-1.11,4.29c-0.59,1.27-1.53,2.36-2.71,3.12c-1.57,0.89-3.37,1.31-5.17,1.2c-1.81,0.1-3.62-0.31-5.21-1.2
	c-2.53-1.64-3.5-4.54-3.8-7.44c-0.12-1.04-1.05-1.78-2.09-1.67c-0.11,0.01-0.22,0.03-0.33,0.07L8.71,36
	c-0.87,0.26-1.44,1.1-1.35,2.01c0.42,4.39,2.36,8.5,5.48,11.63c3.7,3.7,9.36,5.55,16.99,5.55s13.28-1.85,16.96-5.55
	c3.08-3.15,5-7.25,5.44-11.63c0.09-0.91-0.48-1.75-1.35-2.01L41.23,33.17z"/>
<path d="M52.3,17.83l-13.36-3.89l-8.52-2.48c-0.35-0.1-0.71-0.1-1.06,0l-8.64,2.52L7.29,17.89
	l-5.92,1.72C0.56,19.85,0,20.59,0,21.43l0,10.01c0,1.05,0.85,1.89,1.9,1.89c0.18,0,0.36-0.03,0.53-0.08l4.85-1.41l13.43-3.91
	l8.64-2.52c0.35-0.1,0.71-0.1,1.06,0l8.52,2.48l13.36,3.89l5.09,1.48c1,0.29,2.06-0.29,2.35-1.29c0.05-0.16,0.07-0.33,0.08-0.49
	L60,21.53c0.02-0.86-0.54-1.62-1.36-1.86L52.3,17.83z"/>
<path d="M50.93,7.67l-9.57-2.79c-1-0.29-2.06,0.28-2.35,1.29c-0.05,0.17-0.08,0.35-0.08,0.53v1
	c0,0.84,0.56,1.58,1.36,1.82l9.57,2.79c1,0.29,2.06-0.28,2.35-1.29c0.05-0.17,0.08-0.35,0.08-0.53v-1
	C52.3,8.65,51.74,7.91,50.93,7.67z"/>
</svg>
